<svg height="511pt" viewBox="0 0 511.99969 511" width="511pt" xmlns="http://www.w3.org/2000/svg" fill="#157A5C"><path d="m180.96875 227.460938c0 5.683593 3.210938 10.875 8.292969 13.417968l119.980469 59.988282c4.136718 2.074218 9.183593 2.113281 13.414062 0l119.976562-59.988282c5.082032-2.542968 8.292969-7.734375 8.292969-13.417968v-151.972657c0-5.542969-3.097656-10.816406-8.292969-13.414062l-119.976562-59.992188c-4.222656-2.1093748-9.191406-2.1093748-13.414062 0-20.964844 10.484375-118.828126 59.410157-120.089844 60.054688-5.203125 2.65625-8.183594 7.945312-8.183594 13.351562zm29.996094-127.707032 89.984375 44.992188v118.4375l-89.984375-44.992188zm209.964844 118.4375-89.984376 44.992188v-118.4375l89.984376-44.992188zm-104.980469-185.925781 86.441406 43.222656-86.441406 43.222657-86.445313-43.222657zm0 0"/><path d="m438.851562 325.457031-79.765624 64.742188c1.199218-4.046875 1.855468-8.328125 1.855468-12.761719 0-24.808594-20.183594-44.992188-44.992187-44.992188h-55.449219l-71.09375-47.394531c-12.359375-8.242187-26.742188-12.597656-41.597656-12.597656-20.835938 0-111.46875 0-132.8125 0-8.28125 0-14.996094 6.714844-14.996094 15v179.96875c0 8.28125 6.714844 14.996094 14.996094 14.996094h59.992187c8.28125 0 14.996094-6.714844 14.996094-14.996094v-5.828125l86.609375 42.902344c10.359375 5.179687 21.957031 7.917968 33.535156 7.917968h110.574219c16.882813 0 33.457031-5.785156 46.640625-16.269531l127.667969-100.96875c19.097656-15.1875 22.589843-42.375 7.949219-61.894531-15.34375-20.457031-44.503907-23.867188-64.109376-7.824219zm-378.863281 126.96875h-29.992187v-149.976562h29.992187zm416.382813-80.753906-127.664063 100.972656c-7.929687 6.304688-17.875 9.773438-28.003906 9.773438h-110.574219c-6.949218 0-13.90625-1.640625-20.171875-4.773438l-99.972656-49.523437v-125.671875h57.824219c8.914062 0 17.542968 2.613281 24.957031 7.558593l74.875 49.914063c2.460937 1.640625 5.355469 2.519531 8.316406 2.519531h59.992188c8.269531 0 14.996093 6.726563 14.996093 14.996094s-6.726562 14.996094-14.996093 14.996094c-10.726563 0-103.78125 0-119.980469 0-8.285156 0-15 6.714844-15 15 0 8.28125 6.714844 14.996094 15 14.996094h165.683594c3.441406 0 6.78125-1.183594 9.453125-3.351563l86.695312-70.367187c6.507813-5.328126 16.121094-4.160157 21.164063 2.566406 4.832031 6.441406 3.679687 15.410156-2.59375 20.394531zm0 0"/></svg>