<svg id="Layer_1" enable-background="new 0 0 512 512" height="512" viewBox="0 0 512 512" width="512" xmlns="http://www.w3.org/2000/svg" fill="#157A5C"><path d="m399.224 436.838v-69.954c10.492 5.013 22.076 7.707 33.963 7.707 43.458 0 78.813-35.355 78.813-78.813 0-32.394-19.794-60.963-48.813-72.9 2.803-19.705-1.954-40.042-13.67-56.661-13.987-19.839-35.426-31.758-59.388-33.205-9.967-23.06-27.006-41.293-48.024-50.146-1.911-46.019-39.946-82.866-86.425-82.866-46.572 0-84.667 36.994-86.436 83.141-14.868 6.423-28.107 17.676-38.076 32.552-3.616 5.396-6.738 11.215-9.359 17.332-23.888 1.496-45.255 13.404-59.206 33.193-11.717 16.62-16.473 36.955-13.669 56.659-29.02 11.937-48.813 40.506-48.813 72.9 0 43.458 35.355 78.813 78.813 78.813 11.176 0 22.082-2.385 32.067-6.835v69.492c-48.345 11.274-86.211 28.281-106.727 49.267-5.791 5.924-5.684 15.42.241 21.211 5.923 5.791 15.421 5.683 21.211-.241 31.937-32.668 126.628-55.484 230.274-55.484s198.337 22.816 230.274 55.485c2.938 3.006 6.831 4.515 10.727 4.515 3.782 0 7.567-1.421 10.484-4.274 5.924-5.791 6.032-15.288.241-21.211-20.766-21.243-59.309-38.408-108.502-49.677zm-128.224-96.098c.419-.075.833-.172 1.25-.253 14.616 21.23 38.752 34.104 64.906 34.104 11.176 0 22.082-2.385 32.067-6.835v63.167c-30.183-5.058-63.358-8.095-98.224-8.773v-81.41zm153.997-157.237c9.311 13.206 11.558 29.453 6.164 44.573-1.471 4.123-1.067 8.683 1.105 12.483s5.896 6.462 10.195 7.288c22.911 4.398 39.539 24.556 39.539 47.93 0 26.916-21.897 48.813-48.813 48.813-14.064 0-27.452-6.076-36.732-16.669-2.848-3.251-6.96-5.116-11.283-5.116s-8.435 1.865-11.283 5.116c-9.28 10.593-22.669 16.669-36.733 16.669-13.772 0-26.64-5.767-35.754-15.576 3.691-2.299 7.232-4.867 10.565-7.726 13.011-11.161 22.381-25.903 26.98-42.221 35.758-13.193 60.821-53.026 60.821-98.729 0-5.28-.346-10.481-.998-15.577 10.498 2.998 19.684 9.461 26.227 18.742zm-236.831-75.205c7.234-1.799 12.05-8.638 11.305-16.056-.193-1.926-.292-3.858-.292-5.742 0-31.154 25.346-56.5 56.5-56.5s56.5 25.346 56.5 56.5c0 1.859-.093 3.752-.277 5.626-.734 7.468 4.164 14.331 11.465 16.063 26.886 6.379 46.401 36.723 46.401 72.15 0 35.724-19.701 66.112-46.845 72.256-5.96 1.349-10.506 6.18-11.492 12.21-3.626 22.189-19.684 39.448-40.432 45.219v-169.024c0-8.284-6.716-15-15-15s-15 6.716-15 15v169.198c-21.106-5.598-37.47-23.031-41.093-45.516-.964-5.983-5.434-10.798-11.328-12.205-26.856-6.407-46.348-36.745-46.348-72.138.001-35.124 19.32-65.422 45.936-72.041zm-158.046 187.479c0-23.375 16.629-43.532 39.54-47.931 4.299-.825 8.023-3.487 10.195-7.288 2.172-3.8 2.576-8.36 1.105-12.483-5.394-15.119-3.147-31.364 6.163-44.571 6.519-9.248 15.663-15.699 26.113-18.711-.653 5.127-1.005 10.322-1.005 15.546 0 45.25 24.766 84.977 60.103 98.452 4.563 16.397 13.937 31.217 26.988 42.437 3.502 3.011 7.232 5.701 11.128 8.091-9.089 9.631-21.825 15.271-35.486 15.271-14.064 0-27.452-6.076-36.732-16.669-2.848-3.251-6.96-5.116-11.283-5.116s-8.435 1.864-11.283 5.116c-9.28 10.593-22.669 16.669-36.733 16.669-26.915 0-48.813-21.897-48.813-48.813zm110.88 71.107c10.492 5.013 22.076 7.706 33.963 7.706 26.153 0 50.196-12.807 64.814-33.968.407.076.814.148 1.222.218v81.307c-35.549.692-69.345 3.833-100 9.071v-64.334z"/></svg>