<svg id="icons" height="512" viewBox="0 0 60 60" width="512" xmlns="http://www.w3.org/2000/svg" fill="#157A5C"><path d="m33 39a1 1 0 0 0 -1 1v1a1 1 0 0 0 2 0v-1a1 1 0 0 0 -1-1z"/><path d="m52 46.686 5.672-3.975-5.672-9.394z"/><path d="m6.4 2.015a2.6 2.6 0 0 0 -.39-.015 4.018 4.018 0 0 0 -4.01 4v3h8v-2.79a4.151 4.151 0 0 0 -3.6-4.195z"/><path d="m42.219 44.339a2.342 2.342 0 0 1 .119-2.2l3.662-6.067v-30.072a4 4 0 0 0 -4-4h-31.6a6.355 6.355 0 0 1 1.6 4.21v43.79a1 1 0 0 0 1 1h32a.963.963 0 0 0 .282-.063l-3.063-6.6zm-19.219-34.339h12a1 1 0 0 1 0 2h-12a1 1 0 0 1 0-2zm-7 7h26a1 1 0 0 1 0 2h-26a1 1 0 0 1 0-2zm0 5h26a1 1 0 0 1 0 2h-26a1 1 0 0 1 0-2zm22 22h-18a1 1 0 0 1 0-2h2.184a2.966 2.966 0 0 1 -.184-1v-2a3 3 0 0 1 6 0v2a2.966 2.966 0 0 1 -.184 1h2.368a2.966 2.966 0 0 1 -.184-1v-1a3 3 0 0 1 6 0v1a2.966 2.966 0 0 1 -.184 1h2.184a1 1 0 0 1 0 2zm-22-15a1 1 0 0 1 0-2h26a1 1 0 0 1 0 2z"/><path d="m25 38a1 1 0 0 0 -1 1v2a1 1 0 0 0 2 0v-2a1 1 0 0 0 -1-1z"/><path d="m51 49.334a2.25 2.25 0 0 1 -1.325-.432l-4.648-3.255 5.643 12.144a.349.349 0 0 0 .33.209.342.342 0 0 0 .326-.206l5.64-12.146-4.66 3.265a2.225 2.225 0 0 1 -1.306.421z"/><path d="m50 46.685v-13.369l-5.672 9.396z"/></svg>