<svg id="Layer_1" height="512" viewBox="0 0 64 64" width="512" xmlns="http://www.w3.org/2000/svg" data-name="Layer 1" fill="#157A5C"><path d="m32 25a12 12 0 1 0 -12-12 12.013 12.013 0 0 0 12 12zm0-22a10 10 0 1 1 -10 10 10.011 10.011 0 0 1 10-10z"/><path d="m27 10h10v2h-10z"/><path d="m27 14h10v2h-10z"/><path d="m10 28h2v2h-2z"/><path d="m10 24h2v2h-2z"/><path d="m10 20h2v2h-2z"/><path d="m10 16h2v2h-2z"/><path d="m10 12h2v2h-2z"/><path d="m14 12h2v2h-2z"/><path d="m52 28h2v2h-2z"/><path d="m10 32h2v2h-2z"/><path d="m52 32h2v2h-2z"/><path d="m52 24h2v2h-2z"/><path d="m52 20h2v2h-2z"/><path d="m52 16h2v2h-2z"/><path d="m52 12h2v2h-2z"/><path d="m48 12h2v2h-2z"/><path d="m31 27.5h2v2h-2z"/><path d="m60.52 40.5a2.517 2.517 0 0 0 -.546.064 2.5 2.5 0 0 0 -2.456-2.064 2.448 2.448 0 0 0 -.545.064 2.493 2.493 0 0 0 -4.911 0 2.486 2.486 0 0 0 -3.042 2.436v7.934a2.785 2.785 0 0 0 -4.643 1.072 2.826 2.826 0 0 0 .145 2.084l2.721 5.551a4.177 4.177 0 0 0 2.757 2.238v3.121h2v-4a1 1 0 0 0 -1-1 2.183 2.183 0 0 1 -1.962-1.24l-2.715-5.54a.824.824 0 0 1 -.042-.6.785.785 0 0 1 1.375-.208l1.55 2.17a1 1 0 0 0 1.814-.582v-11a.5.5 0 0 1 1-.012v8.012h2v-10a.5.5 0 0 1 1 0v10h2v-8a.5.5 0 0 1 1 0v8h2v-6a.5.5 0 0 1 1 0v11a4.72 4.72 0 0 1 -2.52 4.133 1 1 0 0 0 -.5.867v4h2v-3.446a6.614 6.614 0 0 0 3.02-5.554v-11a2.5 2.5 0 0 0 -2.5-2.5z"/><path d="m9.062 38.563a2.486 2.486 0 0 0 -3.042 2.437v7.934a2.785 2.785 0 0 0 -4.643 1.072 2.826 2.826 0 0 0 .145 2.084l2.721 5.551a4.177 4.177 0 0 0 2.757 2.238v3.121h2v-4a1 1 0 0 0 -1-1 2.183 2.183 0 0 1 -1.962-1.24l-2.715-5.54a.824.824 0 0 1 -.042-.6.785.785 0 0 1 1.375-.208l1.55 2.17a1 1 0 0 0 1.814-.582v-11a.5.5 0 0 1 1-.012v8.012h2v-10a.5.5 0 0 1 1 0v10h2v-8a.5.5 0 0 1 1 0v8h2v-6a.5.5 0 0 1 1 0v11a4.72 4.72 0 0 1 -2.52 4.133 1 1 0 0 0 -.5.867v4h2v-3.446a6.614 6.614 0 0 0 3.02-5.554v-11a2.485 2.485 0 0 0 -3.046-2.436 2.5 2.5 0 0 0 -2.456-2.064 2.448 2.448 0 0 0 -.545.064 2.493 2.493 0 0 0 -4.911 0z"/><path d="m28.02 36.5v7.934a2.785 2.785 0 0 0 -4.643 1.072 2.826 2.826 0 0 0 .145 2.084l2.721 5.551a4.177 4.177 0 0 0 2.757 2.238v7.621h2v-8.5a1 1 0 0 0 -1-1 2.183 2.183 0 0 1 -1.962-1.24l-2.715-5.54a.824.824 0 0 1 -.042-.6.785.785 0 0 1 1.375-.208l1.55 2.17a1 1 0 0 0 1.814-.582v-11a.5.5 0 0 1 1-.012v8.012h2v-10a.5.5 0 0 1 1 0v10h2v-8a.5.5 0 0 1 1 0v8h2v-6a.5.5 0 0 1 1 0v11a4.72 4.72 0 0 1 -2.52 4.133 1 1 0 0 0 -.5.867v8.5h2v-7.946a6.614 6.614 0 0 0 3.02-5.554v-11a2.485 2.485 0 0 0 -3.046-2.436 2.5 2.5 0 0 0 -2.456-2.064 2.448 2.448 0 0 0 -.545.064 2.493 2.493 0 0 0 -4.911 0 2.486 2.486 0 0 0 -3.042 2.436z"/></svg>